<?xml version="1.0" encoding="utf-8"?>
<!-- Generator: Adobe Illustrator 19.0.0, SVG Export Plug-In . SVG Version: 6.00 Build 0)  -->
<svg version="1.1" id="Layer_1" xmlns="http://www.w3.org/2000/svg" xmlns:xlink="http://www.w3.org/1999/xlink" x="0px" y="0px"
	 viewBox="226 84.4 669.7 197.8" style="enable-background:new 226 84.4 669.7 197.8;" xml:space="preserve">
<style type="text/css">
	.st0{fill:#2F1A59;}
	.st1{fill:#808080;}
	.st2{fill:#FFFFFF;}
</style>
<path class="st0" d="M226,84.4h669.7v197.8H226V84.4z"/>
<path class="st1" d="M258,252.4v-29.1l61.7-40.3L258,143.1v-28.9l82.7,54V198L258,252.4z"/>
<g>
	<path class="st2" d="M365.2,126.3h48.6c36.2,0,51.8,26.3,51.8,58.7c0,32.4-15.6,58.7-51.8,58.7h-48.6V126.3z M385.7,226.9H406
		c32.2,0,39.1-18.4,39.1-41.9c0-23.5-6.9-41.9-39.1-41.9h-20.2V226.9z"/>
	<path class="st2" d="M481.7,126.3h20.5V173h53.4v-46.7h20.5v117.3h-20.5v-52.9h-53.4v52.9h-20.5V126.3z"/>
	<path class="st1" d="M599.2,126.3h57c21,0,34.8,9.5,34.8,29.1c0,11.8-6.1,20.4-16.8,25v0.3c14.3,3.1,22,14.3,22,30.2
		c0,18.4-12.8,32.7-43.2,32.7h-53.9V126.3z M619.8,175.5h33.5c9.9,0,17.3-5.8,17.3-16.3c0-11.8-6.1-16.1-17.3-16.1h-33.5V175.5z
		 M619.8,226.9h36.3c12.5,0,19.7-6.7,19.7-18.6c0-11.5-7.2-18.1-19.7-18.1h-36.3V226.9z"/>
	<path class="st1" d="M703.1,201.1c0-26,15.6-44.7,42.9-44.7c27.3,0,42.9,18.7,42.9,44.7c0,26.1-15.6,44.9-42.9,44.9
		C718.7,246,703.1,227.2,703.1,201.1z M770.2,201.1c0-14.6-7.4-29.9-24.2-29.9c-16.8,0-24.2,15.3-24.2,29.9
		c0,14.8,7.4,30.1,24.2,30.1C762.8,231.2,770.2,215.9,770.2,201.1z"/>
	<path class="st1" d="M816.1,199l-29.4-40.3h22.7l17.7,26.1l18.6-26.1h21.7L838.5,198l32.5,45.7h-22.5L827,212.3l-20.9,31.4h-22
		L816.1,199z"/>
</g>
</svg>
